<svg xmlns="http://www.w3.org/2000/svg" xmlns:xlink="http://www.w3.org/1999/xlink" contentStyleType="text/css" data-diagram-type="DESCRIPTION" height="1073px" preserveAspectRatio="none" style="width:855px;height:1073px;background:#FFFFFF;" version="1.1" viewBox="0 0 855 1073" width="855px" zoomAndPan="magnify"><?plantuml 1.2026.6?><defs/><g><!--cluster Retail Inventory Management System--><g class="cluster" data-qualified-name="Retail Inventory Management System" data-source-line="36" id="ent0004"><rect fill="#FCFCFC" height="899" rx="2.5" ry="2.5" style="stroke:#888888;stroke-width:1;" width="389" x="452" y="7"/><text fill="#000000" font-family="Helvetica" font-size="13" font-weight="700" lengthAdjust="spacing" textLength="276.8149" x="508.0925" y="21.0669">Retail Inventory Management System</text></g><!--entity UC_LOGIN--><g class="entity" data-qualified-name="Retail Inventory Management System.UC_LOGIN" data-source-line="37" id="ent0005"><ellipse cx="539.3824" cy="55.2005" fill="#FFFFFF" rx="30.8824" ry="13.7005" style="stroke:#555555;stroke-width:0.5;"/><text fill="#222222" font-family="Helvetica" font-size="13" lengthAdjust="spacing" textLength="39.4316" x="519.6666" y="59.2669">Log in</text></g><!--entity UC_ITEMS--><g class="entity" data-qualified-name="Retail Inventory Management System.UC_ITEMS" data-source-line="39" id="ent0006"><ellipse cx="539.3512" cy="136.0115" fill="#FFFFFF" rx="68.8512" ry="22.5115" style="stroke:#555555;stroke-width:0.5;"/><text fill="#222222" font-family="Helvetica" font-size="13" lengthAdjust="spacing" textLength="51.6382" x="513.5321" y="129.6951">Manage</text><text fill="#222222" font-family="Helvetica" font-size="13" lengthAdjust="spacing" textLength="102.1465" x="488.2779" y="144.8279">inventory items</text></g><!--entity UC_VIEWINV--><g class="entity" data-qualified-name="Retail Inventory Management System.UC_VIEWINV" data-source-line="40" id="ent0007"><ellipse cx="539.3404" cy="226.7582" fill="#FFFFFF" rx="58.3404" ry="23.2582" style="stroke:#555555;stroke-width:0.5;"/><text fill="#222222" font-family="Helvetica" font-size="13" lengthAdjust="spacing" textLength="82.6782" x="498.0013" y="224.9228">View current</text><text fill="#222222" font-family="Helvetica" font-size="13" lengthAdjust="spacing" textLength="61.8706" x="508.4051" y="240.0556">inventory</text></g><!--entity UC_IN--><g class="entity" data-qualified-name="Retail Inventory Management System.UC_IN" data-source-line="42" id="ent0008"><ellipse cx="539.7127" cy="319.8798" fill="#FFFFFF" rx="38.2127" ry="23.8798" style="stroke:#555555;stroke-width:0.5;"/><text fill="#222222" font-family="Helvetica" font-size="13" lengthAdjust="spacing" textLength="45.7285" x="516.8485" y="315.6332">Record</text><text fill="#222222" font-family="Helvetica" font-size="13" lengthAdjust="spacing" textLength="51.0415" x="514.192" y="330.766">stock-in</text></g><!--entity UC_OUT--><g class="entity" data-qualified-name="Retail Inventory Management System.UC_OUT" data-source-line="43" id="ent0009"><ellipse cx="539.5411" cy="412.7876" fill="#FFFFFF" rx="43.5411" ry="23.2876" style="stroke:#555555;stroke-width:0.5;"/><text fill="#222222" font-family="Helvetica" font-size="13" lengthAdjust="spacing" textLength="45.7285" x="516.6768" y="407.6671">Record</text><text fill="#222222" font-family="Helvetica" font-size="13" lengthAdjust="spacing" textLength="60.4805" x="509.3009" y="422.7999">stock-out</text></g><!--entity UC_ADJUST--><g class="entity" data-qualified-name="Retail Inventory Management System.UC_ADJUST" data-source-line="44" id="ent0010"><ellipse cx="760.283" cy="328.9501" fill="#FFFFFF" rx="43.783" ry="22.9501" style="stroke:#555555;stroke-width:0.5;"/><text fill="#222222" font-family="Helvetica" font-size="13" lengthAdjust="spacing" textLength="40.8662" x="739.8499" y="323.3174">Adjust</text><text fill="#222222" font-family="Helvetica" font-size="13" lengthAdjust="spacing" textLength="61.8706" x="729.3477" y="338.4502">inventory</text></g><!--entity UC_APPROVE--><g class="entity" data-qualified-name="Retail Inventory Management System.UC_APPROVE" data-source-line="45" id="ent0011"><ellipse cx="539.5805" cy="594.1769" fill="#FFFFFF" rx="65.0805" ry="22.6769" style="stroke:#555555;stroke-width:0.5;"/><text fill="#222222" font-family="Helvetica" font-size="13" lengthAdjust="spacing" textLength="54.3867" x="512.3871" y="588.121">Approve</text><text fill="#222222" font-family="Helvetica" font-size="13" lengthAdjust="spacing" textLength="95.4878" x="491.8366" y="603.2538">negative stock</text></g><!--entity UC_HISTORY--><g class="entity" data-qualified-name="Retail Inventory Management System.UC_HISTORY" data-source-line="46" id="ent0012"><ellipse cx="539.4307" cy="503.8308" fill="#FFFFFF" rx="70.4307" ry="22.3308" style="stroke:#555555;stroke-width:0.5;"/><text fill="#222222" font-family="Helvetica" font-size="13" lengthAdjust="spacing" textLength="105.5742" x="486.6436" y="503.4354">View movement</text><text fill="#222222" font-family="Helvetica" font-size="13" lengthAdjust="spacing" textLength="44.7129" x="517.0743" y="518.5682">history</text></g><!--entity UC_ALERTS--><g class="entity" data-qualified-name="Retail Inventory Management System.UC_ALERTS" data-source-line="48" id="ent0013"><ellipse cx="760.4761" cy="552.2499" fill="#FFFFFF" rx="64.4761" ry="22.2499" style="stroke:#555555;stroke-width:0.5;"/><text fill="#222222" font-family="Helvetica" font-size="13" lengthAdjust="spacing" textLength="96.6558" x="712.1482" y="551.985">View low-stock</text><text fill="#222222" font-family="Helvetica" font-size="13" lengthAdjust="spacing" textLength="36.791" x="742.0806" y="567.1178">alerts</text></g><!--entity UC_DASH--><g class="entity" data-qualified-name="Retail Inventory Management System.UC_DASH" data-source-line="49" id="ent0014"><ellipse cx="539.5735" cy="685.1193" fill="#FFFFFF" rx="67.5735" ry="23.1193" style="stroke:#555555;stroke-width:0.5;"/><text fill="#222222" font-family="Helvetica" font-size="13" lengthAdjust="spacing" textLength="97.1382" x="491.0044" y="683.4937">View inventory</text><text fill="#222222" font-family="Helvetica" font-size="13" lengthAdjust="spacing" textLength="68.999" x="505.074" y="698.6265">dashboard</text></g><!--entity UC_REPORT--><g class="entity" data-qualified-name="Retail Inventory Management System.UC_REPORT" data-source-line="50" id="ent0015"><ellipse cx="539.6535" cy="776.1932" fill="#FFFFFF" rx="71.6535" ry="22.6932" style="stroke:#555555;stroke-width:0.5;"/><text fill="#222222" font-family="Helvetica" font-size="13" lengthAdjust="spacing" textLength="60.7153" x="509.2959" y="770.1627">Generate</text><text fill="#222222" font-family="Helvetica" font-size="13" lengthAdjust="spacing" textLength="105.5107" x="486.8982" y="785.2955">low-stock report</text></g><!--entity UC_USERS--><g class="entity" data-qualified-name="Retail Inventory Management System.UC_USERS" data-source-line="52" id="ent0016"><ellipse cx="539.4421" cy="866.9584" fill="#FFFFFF" rx="62.9421" ry="22.9584" style="stroke:#555555;stroke-width:0.5;"/><text fill="#222222" font-family="Helvetica" font-size="13" lengthAdjust="spacing" textLength="90.8984" x="493.9929" y="865.5783">Manage users</text><text fill="#222222" font-family="Helvetica" font-size="13" lengthAdjust="spacing" textLength="60.271" x="509.3066" y="880.7111">and roles</text></g><!--entity staff--><g class="entity" data-qualified-name="staff" data-source-line="32" id="ent0001"><ellipse cx="348.6233" cy="198" fill="#FFFFFF" rx="8" ry="8" style="stroke:#333333;stroke-width:0.5;"/><path d="M348.6233,206 L348.6233,233 M335.6233,214 L361.6233,214 M348.6233,233 L335.6233,248 M348.6233,233 L361.6233,248" fill="none" style="stroke:#333333;stroke-width:0.5;"/><text fill="#000000" font-family="Helvetica" font-size="13" lengthAdjust="spacing" textLength="69.2466" x="314" y="261.5669">Store Staff</text></g><!--entity manager--><g class="entity" data-qualified-name="manager" data-source-line="33" id="ent0002"><ellipse cx="180.8804" cy="656" fill="#FFFFFF" rx="8" ry="8" style="stroke:#333333;stroke-width:0.5;"/><path d="M180.8804,664 L180.8804,691 M167.8804,672 L193.8804,672 M180.8804,691 L167.8804,706 M180.8804,691 L193.8804,706" fill="none" style="stroke:#333333;stroke-width:0.5;"/><text fill="#000000" font-family="Helvetica" font-size="13" lengthAdjust="spacing" textLength="95.7607" x="133" y="719.5669">Store Manager</text></g><!--entity owner--><g class="entity" data-qualified-name="owner" data-source-line="34" id="ent0003"><ellipse cx="27.2234" cy="747" fill="#FFFFFF" rx="8" ry="8" style="stroke:#333333;stroke-width:0.5;"/><path d="M27.2234,755 L27.2234,782 M14.2234,763 L40.2234,763 M27.2234,782 L14.2234,797 M27.2234,782 L40.2234,797" fill="none" style="stroke:#333333;stroke-width:0.5;"/><text fill="#000000" font-family="Helvetica" font-size="13" lengthAdjust="spacing" textLength="42.4468" x="6" y="810.5669">Owner</text></g><!--link manager to staff--><g class="link" data-entity-1="ent0002" data-entity-2="ent0001" data-link-type="extension" data-source-line="56" id="lnk17"><path d="M229.08,654.75 C274.91,654.75 337,654.75 337,654.75 C337,654.75 337,386.96 337,282.59" fill="none" id="manager-to-staff" style="stroke:#444444;stroke-width:1;"/><polygon fill="none" points="337,264.59,331,282.59,343,282.59,337,264.59" style="stroke:#444444;stroke-width:1;stroke-linejoin:miter;stroke-miterlimit:10;"/></g><!--link owner to manager--><g class="link" data-entity-1="ent0003" data-entity-2="ent0002" data-link-type="extension" data-source-line="57" id="lnk18"><path d="M48.26,746 C86.97,746 165,746 165,746 C165,746 165,753.14 165,740.59" fill="none" id="owner-to-manager" style="stroke:#444444;stroke-width:1;"/><polygon fill="none" points="165,722.59,159,740.59,171,740.59,165,722.59" style="stroke:#444444;stroke-width:1;stroke-linejoin:miter;stroke-miterlimit:10;"/></g><!--link staff to UC_LOGIN--><g class="link" data-entity-1="ent0001" data-entity-2="ent0005" data-link-type="association" data-source-line="60" id="lnk19"><path d="M349,189.25 C349,138.62 349,55 349,55 C349,55 454.49,55 508.47,55" fill="none" id="staff-UC_LOGIN" style="stroke:#444444;stroke-width:1;"/></g><!--link staff to UC_ITEMS--><g class="link" data-entity-1="ent0001" data-entity-2="ent0006" data-link-type="association" data-source-line="61" id="lnk20"><path d="M383.2,196.5 C421.56,196.5 478,196.5 478,196.5 C478,196.5 478,163.52 478,146.26" fill="none" id="staff-UC_ITEMS" style="stroke:#444444;stroke-width:1;"/></g><!--link staff to UC_VIEWINV--><g class="link" data-entity-1="ent0001" data-entity-2="ent0007" data-link-type="association" data-source-line="62" id="lnk21"><path d="M383.09,227 C410.29,227 448.8,227 480.8,227" fill="none" id="staff-UC_VIEWINV" style="stroke:#444444;stroke-width:1;"/></g><!--link staff to UC_IN--><g class="link" data-entity-1="ent0001" data-entity-2="ent0008" data-link-type="association" data-source-line="63" id="lnk22"><path d="M383.18,258.9 C438.36,258.9 540,258.9 540,258.9 C540,258.9 540,278.77 540,295.85" fill="none" id="staff-UC_IN" style="stroke:#444444;stroke-width:1;"/></g><!--link staff to UC_OUT--><g class="link" data-entity-1="ent0001" data-entity-2="ent0009" data-link-type="association" data-source-line="64" id="lnk23"><path d="M360,264.64 C360,318.99 360,413 360,413 C360,413 442.45,413 495.59,413" fill="none" id="staff-UC_OUT" style="stroke:#444444;stroke-width:1;"/></g><!--link staff to UC_ADJUST--><g class="link" data-entity-1="ent0001" data-entity-2="ent0010" data-link-type="association" data-source-line="65" id="lnk24"><path d="M383.31,253.3 C482.76,253.3 761,253.3 761,253.3 C761,253.3 761,283.61 761,305.88" fill="none" id="staff-UC_ADJUST" style="stroke:#444444;stroke-width:1;"/></g><!--link staff to UC_HISTORY--><g class="link" data-entity-1="ent0001" data-entity-2="ent0012" data-link-type="association" data-source-line="66" id="lnk25"><path d="M383.13,261.7 C420.27,261.7 474,261.7 474,261.7 C474,261.7 474,453.05 474,495.66" fill="none" id="staff-UC_HISTORY" style="stroke:#444444;stroke-width:1;"/></g><!--link staff to UC_ALERTS--><g class="link" data-entity-1="ent0001" data-entity-2="ent0013" data-link-type="association" data-source-line="67" id="lnk26"><path d="M383.2,256.1 C473.17,256.1 707,256.1 707,256.1 C707,256.1 707,483.66 707,539.66" fill="none" id="staff-UC_ALERTS" style="stroke:#444444;stroke-width:1;"/></g><!--link manager to UC_APPROVE--><g class="link" data-entity-1="ent0002" data-entity-2="ent0011" data-link-type="association" data-source-line="69" id="lnk27"><path d="M181,647.46 C181,622.39 181,594 181,594 C181,594 370.76,594 474.16,594" fill="none" id="manager-UC_APPROVE" style="stroke:#444444;stroke-width:1;"/></g><!--link manager to UC_DASH--><g class="link" data-entity-1="ent0002" data-entity-2="ent0014" data-link-type="association" data-source-line="70" id="lnk28"><path d="M229.35,685 C291.85,685 401.02,685 471.76,685" fill="none" id="manager-UC_DASH" style="stroke:#444444;stroke-width:1;"/></g><!--link manager to UC_REPORT--><g class="link" data-entity-1="ent0002" data-entity-2="ent0015" data-link-type="association" data-source-line="71" id="lnk29"><path d="M197,722.54 C197,747.61 197,776 197,776 C197,776 367.27,776 467.7,776" fill="none" id="manager-UC_REPORT" style="stroke:#444444;stroke-width:1;"/></g><!--link owner to UC_USERS--><g class="link" data-entity-1="ent0003" data-entity-2="ent0016" data-link-type="association" data-source-line="73" id="lnk30"><path d="M27,813.54 C27,838.61 27,867 27,867 C27,867 339.41,867 476.4,867" fill="none" id="owner-UC_USERS" style="stroke:#444444;stroke-width:1;"/></g><!--link UC_DASH to UC_ALERTS--><g class="link" data-entity-1="ent0014" data-entity-2="ent0013" data-link-type="dependency" data-source-line="76" id="lnk31"><path d="M607.16,685 C672.3,685 761,685 761,685 C761,685 761,617.12 761,579.26" fill="none" id="UC_DASH-to-UC_ALERTS" style="stroke:#444444;stroke-width:1;stroke-dasharray:7,7;"/><polygon fill="#444444" points="761,574.26,757,583.26,761,579.26,765,583.26,761,574.26" style="stroke:#444444;stroke-width:1;stroke-linejoin:miter;stroke-miterlimit:10;"/><text fill="#000000" font-family="Helvetica" font-size="13" lengthAdjust="spacing" textLength="63.0068" x="675.45" y="698.0669">&#171;include&#187;</text></g><!--link UC_APPROVE to UC_ADJUST--><g class="link" data-entity-1="ent0011" data-entity-2="ent0010" data-link-type="dependency" data-source-line="79" id="lnk32"><path d="M604.44,595.25 C630.29,595.25 654,595.25 654,595.25 C654,595.25 654,348 654,348 C654,348 699.05,348 730.53,348" fill="none" id="UC_APPROVE-to-UC_ADJUST" style="stroke:#444444;stroke-width:1;stroke-dasharray:7,7;"/><polygon fill="#444444" points="735.53,348,726.53,344,730.53,348,726.53,352,735.53,348" style="stroke:#444444;stroke-width:1;stroke-linejoin:miter;stroke-miterlimit:10;"/><text fill="#000000" font-family="Helvetica" font-size="13" lengthAdjust="spacing" textLength="61.1851" x="592" y="468.7069">&#171;extend&#187;</text></g><g class="legend" data-source-line="81"><rect fill="none" height="128.0781" rx="7.5" ry="7.5" style="stroke:#000000;stroke-width:1;" width="537.9873" x="298.0127" y="926"/><text fill="#000000" font-family="Helvetica" font-size="14" font-weight="700" lengthAdjust="spacing" textLength="68.5508" x="307.8867" y="945.9951">Notation</text><text fill="#000000" font-family="Helvetica" font-size="14" font-weight="700" lengthAdjust="spacing" textLength="67.6279" x="422.1016" y="945.9951">Meaning</text><text fill="#000000" font-family="Helvetica" font-size="14" lengthAdjust="spacing" textLength="79.4678" x="307.4629" y="962.292">Stick figure</text><text fill="#000000" font-family="Helvetica" font-size="14" lengthAdjust="spacing" textLength="265.2412" x="421.6777" y="962.292">Actor &#8212; outside the system boundary</text><text fill="#000000" font-family="Helvetica" font-size="14" lengthAdjust="spacing" textLength="31.7734" x="307.4629" y="978.5889">Oval</text><text fill="#000000" font-family="Helvetica" font-size="14" lengthAdjust="spacing" textLength="251.1182" x="421.6777" y="978.5889">Use case &#8212; a goal an actor pursues</text><text fill="#000000" font-family="Helvetica" font-size="14" lengthAdjust="spacing" textLength="63.3896" x="307.4629" y="994.8857">Plain line</text><text fill="#000000" font-family="Helvetica" font-size="14" lengthAdjust="spacing" textLength="79.7139" x="421.6777" y="994.8857">Association</text><text fill="#000000" font-family="Helvetica" font-size="14" lengthAdjust="spacing" textLength="105.3145" x="307.4629" y="1011.1826">Hollow triangle</text><text fill="#000000" font-family="Helvetica" font-size="14" lengthAdjust="spacing" textLength="404.8721" x="421.6777" y="1011.1826">Generalization &#8212; the child inherits the parent's use cases</text><text fill="#000000" font-family="Helvetica" font-size="14" lengthAdjust="spacing" textLength="67.8535" x="307.4629" y="1027.4795">&#171;include&#187;</text><text fill="#000000" font-family="Helvetica" font-size="14" lengthAdjust="spacing" textLength="345.167" x="421.6777" y="1027.4795">Mandatory: the base use case always performs it</text><text fill="#000000" font-family="Helvetica" font-size="14" lengthAdjust="spacing" textLength="65.8916" x="307.4629" y="1043.7764">&#171;extend&#187;</text><text fill="#000000" font-family="Helvetica" font-size="14" lengthAdjust="spacing" textLength="331.6387" x="421.6777" y="1043.7764">Conditional: the base use case works without it</text><line style="stroke:#000000;stroke-width:1;" x1="303.0127" x2="831" y1="933" y2="933"/><line style="stroke:#000000;stroke-width:1;" x1="303.0127" x2="831" y1="949.2969" y2="949.2969"/><line style="stroke:#000000;stroke-width:1;" x1="303.0127" x2="831" y1="965.5938" y2="965.5938"/><line style="stroke:#000000;stroke-width:1;" x1="303.0127" x2="831" y1="981.8906" y2="981.8906"/><line style="stroke:#000000;stroke-width:1;" x1="303.0127" x2="831" y1="998.1875" y2="998.1875"/><line style="stroke:#000000;stroke-width:1;" x1="303.0127" x2="831" y1="1014.4844" y2="1014.4844"/><line style="stroke:#000000;stroke-width:1;" x1="303.0127" x2="831" y1="1030.7813" y2="1030.7813"/><line style="stroke:#000000;stroke-width:1;" x1="303.0127" x2="831" y1="1047.0781" y2="1047.0781"/><line style="stroke:#000000;stroke-width:1;" x1="303.0127" x2="303.0127" y1="933" y2="1047.0781"/><line style="stroke:#000000;stroke-width:1;" x1="417.2275" x2="417.2275" y1="933" y2="1047.0781"/><line style="stroke:#000000;stroke-width:1;" x1="831" x2="831" y1="933" y2="1047.0781"/></g><?plantuml-src XLRlRjis4F-kfpXa7x81SugjBL0ONG0lTHCFIMnOIOO11W9QEakCQL8WANlECc0FiIVSa-n8IZA5k2q3EEBnxdV_VZpf5EuDGiRe9-Uiq6m3__tpBypHCYvW8hSehT9xk66I5RYX7QHxOt43tzyyp7v8JY5LjSuGr0gihcq9AwKXLvbvawFXXNnJ6tnq-EQnSN1cjWNPpR50YPfPX1stvP1404zios3mn3HKWabRRyIPsmmisNm3jIBb916uic0LQ5wKbbBIc5ckP9AODPSLS_a9Bj7kAmfPsr951r8HE5Rmxdqar4okdV13B3GbozMEom9MJ1YCJfOiMnTQrJA_K88gyTrdloAD75Ui5lQpalQMRH2kK6pHyemTrqdvCy9FRwF3aTPgrw2_yoiwP1cr2_vA07vLEaVTwBtroqc_4D_V4GRLrXFY5Sfxlxw20k12RcG_-zL3TjrWiX17i3_uTHJxmlqrsAdTa_LIYPo0YJ83Mb1flc54Kf-y6OAXSgvXnOjQe_aHL6qDpn5iYM02UPSEtvau-oGKxIIbNuJKijNg19WX67hg7uPheFtn9Zot2jETR0wKUqgIGx8dtxvE9xuYRULFhbK1N7gq-ul7w-dbv3Q9puFzGl8EaHE8QGqcT-ERDDP_uBY3hDQQj2EhLlzXClvzSllGSp77ZFgpaCQgR3qu14EHV56BAjsgJU_lOhrH_bIROwv7dtwxJ_kgLQNLbfAJM33BjzGq1zuPp6RpwSFuLNORijduz4fkOWzNa_HkElyZUMKXr6xWeHUI2TIsAz_eUZo_Urs_BlO5SSUKIyLqtffy6gLNiS5bCziMilD2xAzevBGMy_5iEhyxqbMtruPYaZbe9R0BwpuTpzE8ze5uOOeA_ipSe1i2QqbAKrtIp0JSejxRqaqhpsqlzxnl64oRb_E6xPwxGT3oktDdZCguzsA2lJUXnmD7OqaWOInfQTRJwXivsiJxXXwngErdJorqBCeefafVwblL5xMzQBC_LBjDdijCr3aE_H3fkWzCxDZUG4bl6-7UEEP0gd0ZGw4Qht1sTdw85eRmyME3UtxUUS8_BSfy24gAFUnAbDuby_V73uoTgaKELMtAS35WYUGKdb6hpbkJUUVGLz4x3F3Edt0lu3oyAOc5Bx_0hRA-lUxv1fbqb7bnHqISmqIbxSWpptqeV6ss1jFfbWdwrtrcE2i6XI8fyJ1mkAgrgT4q5ZF1kFIlQUVgmBhc-4e9bw_LF4pN5xZiNG7lmSMJbPmAnMM9cbDdd8XUGrJ2K-Fkc0-dzHbrWdPqWtBcRdhezzB5tLgqFQzGqwSETPZR3gCjBcqkbCov2uU9Oo0xfTV6V_XG1GC4MOQM9Fy3?></g></svg>